<svg xmlns="http://www.w3.org/2000/svg" viewBox="0 0 44 44"><path style="fill:#fff" d="M0 0h44v44H0z"/><path d="M31.6 22.23a11.41 11.41 0 0 0-.18-2.05H22v3.87h5.38a4.59 4.59 0 0 1-2 3v2.51h3.23a9.76 9.76 0 0 0 3-7.35Z" style="fill:#4285f4"/><path d="M22 32a9.59 9.59 0 0 0 6.62-2.42l-3.23-2.51a6 6 0 0 1-9-3.17h-3.33v2.59A10 10 0 0 0 22 32Z" style="fill:#34a853"/><path d="M16.4 23.9a6 6 0 0 1 0-3.8v-2.59h-3.34a10 10 0 0 0 0 9l3.34-2.61Z" style="fill:#fbbc05"/><path d="M22 16a5.38 5.38 0 0 1 3.82 1.49l2.87-2.87A9.61 9.61 0 0 0 22 12a10 10 0 0 0-8.94 5.51l3.34 2.59A6 6 0 0 1 22 16Z" style="fill:#ea4335"/></svg>